<mxfile host="app.diagrams.net" modified="2023-02-02T15:00:54.250Z" agent="5.0 (X11; Linux x86_64) AppleWebKit/537.36 (KHTML, like Gecko) Chrome/109.0.0.0 Safari/537.36" etag="z7SMKn2eEu5Mkf2yvNrV" version="20.8.15" type="github">
  <diagram name="Page-1" id="R8JVAlDbXCnUJkEFmvR4">
    <mxGraphModel dx="995" dy="563" grid="1" gridSize="10" guides="1" tooltips="1" connect="1" arrows="1" fold="1" page="1" pageScale="1" pageWidth="850" pageHeight="1100" math="0" shadow="0">
      <root>
        <mxCell id="0" />
        <mxCell id="1" parent="0" />
      </root>
    </mxGraphModel>
  </diagram>
</mxfile>
